Coordinates
version=1
nRows=34
nColumns=19
inDegrees=yes

Units are S.I. units (second, meters, Newtons, ...)
If the header above contains a line with 'inDegrees', this indicates whether rotational values are in degrees (yes) or radians (no).

endheader
time	subtalar_angle_l	subtalar_angle_r	pelvis_list	pelvis_rotation	pelvis_tilt	pelvis_tx	pelvis_ty	pelvis_tz	hip_flexion_l	hip_adduction_l	hip_rotation_l	hip_flexion_r	hip_adduction_r	hip_rotation_r	knee_flexion_l	knee_flexion_r	ankle_angle_l	ankle_angle_r
      0.98000000	      8.33827398	     16.76027069	     86.99382728	     -1.90534250	    -10.87031487	     -0.79564273	     -0.96896778	      0.87201514	     33.59940729	     -1.14313225	     -3.38329917	     18.05132423	      8.61179817	     -0.15305425	    -62.46522911	    -19.80674377	     12.88630354	     14.00551569
      0.99000000	      7.99334311	     16.81931413	     87.41249696	     -2.09046112	    -10.90715087	     -0.78453689	     -0.96860541	      0.87570637	     34.21515499	     -1.48016380	     -2.77453709	     16.41902529	      8.12335946	      0.27793300	    -59.90039722	    -18.02092189	     13.08185665	     13.30689455
      1.00000000	      7.77307566	     16.94925302	     87.80399488	     -2.31348746	    -10.87751144	     -0.77346124	     -0.96816945	      0.87915654	     34.63463267	     -1.76245315	     -2.16384283	     14.74906681	      7.64619252	      0.73400317	    -57.06780906	    -16.27426260	     13.18799806	     12.81038736
      1.01000000	      7.50743035	     17.10544218	     88.20980410	     -2.55631879	    -10.80286122	     -0.76241929	     -0.96763050	      0.88232473	     34.87943532	     -2.05551669	     -1.58724760	     13.10733754	      7.11401846	      1.08935194	    -53.98067651	    -14.62638228	     13.26732231	     12.08997574
      1.02000000	      7.28603049	     17.29297808	     88.58480238	     -2.82413240	    -10.73951282	     -0.75144897	     -0.96701931	      0.88517040	     35.02759430	     -2.30468723	     -1.05442442	     11.55367144	      6.59003865	      1.39952326	    -50.68166306	    -13.09034800	     13.28229880	     11.37331141
      1.03000000	      7.03916591	     17.56295286	     88.94193320	     -3.11943392	    -10.73213467	     -0.74056536	     -0.96630957	      0.88767377	     35.12952656	     -2.52802188	     -0.57248689	     10.16602135	      6.05044851	      1.59118905	    -47.18452553	    -11.71039475	     13.20190114	     10.27268897
      1.04000000	      7.04436746	     17.85061282	     89.21189016	     -3.42264764	    -10.68494843	     -0.72971289	     -0.96559943	      0.88974899	     35.10031725	     -2.64129675	     -0.15253628	      8.78502923	      5.59767238	      1.79509263	    -43.54265738	    -10.42221250	     13.07488659	      9.57258577
      1.05000000	      7.18473603	     18.08999706	     89.39759394	     -3.73111428	    -10.65765660	     -0.71891240	     -0.96488108	      0.89139537	     35.00403601	     -2.66163736	      0.17980325	      7.47602342	      5.22916929	      2.01843688	    -39.77302524	     -9.23505927	     12.96013298	      9.14956057
      1.06000000	      7.68924639	     18.47678177	     89.54010415	     -4.06103795	    -10.69994279	     -0.70816374	     -0.96409485	      0.89261735	     34.89072411	     -2.62376341	      0.47532702	      6.34172705	      4.87909390	      2.10516637	    -35.87472154	     -8.21160664	     12.63635119	      8.25413716
      1.07000000	      8.37528329	     18.83336612	     89.58577664	     -4.38906157	    -10.73597354	     -0.69740601	     -0.96331426	      0.89335491	     34.68987790	     -2.48013046	      0.69589699	      5.22783604	      4.63057425	      2.22120032	    -31.90526744	     -7.26665088	     12.33140656	      7.69466131
      1.08000000	      8.84405042	     19.05382634	     89.53408983	     -4.70958182	    -10.74419089	     -0.68659909	     -0.96254094	      0.89358294	     34.37410865	     -2.24547328	      0.79714680	      4.08968178	      4.48568245	      2.39623798	    -27.89691153	     -6.37420695	     12.11284850	      7.45775737
      1.09000000	     10.30186219	     19.46216615	     89.41558968	     -5.04556395	    -10.82319568	     -0.67575211	     -0.96172695	      0.89332417	     34.07684505	     -1.92441808	      0.92339208	      3.09352827	      4.39025335	      2.45146378	    -23.90394723	     -5.61521801	     11.41084293	      6.78147743
      1.10000000	     11.62432488	     19.78643910	     89.20360721	     -5.37751536	    -10.80552123	     -0.66475020	     -0.96092498	      0.89250951	     33.63997014	     -1.50598237	      1.01441381	      1.97539942	      4.39108692	      2.56238500	    -20.03040836	     -4.88171953	     10.89004239	      6.48361145
      1.11000000	     12.50914489	     19.99600551	     88.93951717	     -5.70930488	    -10.65590776	     -0.65354394	     -0.96011547	      0.89114394	     33.05962618	     -1.02634227	      1.13948910	      0.69921326	      4.43681155	      2.69303369	    -16.36859970	     -4.16991216	     10.43482601	      6.35004878
      1.12000000	     14.45975235	     20.30117479	     88.60029995	     -6.01318958	    -10.61454924	     -0.64225559	     -0.95931077	      0.88935626	     32.64350452	     -0.48955593	      1.27326300	     -0.46131446	      4.55972257	      2.84286358	    -13.05007723	     -3.51829894	      9.50464992	      6.09896733
      1.13000000	     16.00503972	     20.52342828	     88.27825204	     -6.30438471	    -10.44589940	     -0.63073622	     -0.95846771	      0.88714160	     32.18359517	      0.02533483	      1.54225741	     -1.77160719	      4.65276384	      2.97774206	    -10.18289370	     -2.88332365	      8.78041109	      6.04515324
      1.14000000	     16.66337273	     20.68086150	     87.97931506	     -6.56007078	    -10.24006645	     -0.61908178	     -0.95760851	      0.88463522	     31.75770760	      0.47228421	      1.69772628	     -3.13035753	      4.72319396	      3.16492885	     -7.80635239	     -2.28007777	      8.39217456	      6.08370072
      1.15000000	     18.70988308	     20.86468199	     87.80490304	     -6.80594132	    -10.18697426	     -0.60731237	     -0.95663157	      0.88202761	     31.67162135	      0.78268253	      2.20301044	     -4.25682904	      4.64875827	      3.22911840	     -6.04596114	     -1.79896400	      7.08880125	      6.08609868
      1.16000000	     19.08627836	     20.96694000	     87.72471554	     -7.00721859	    -10.09510326	     -0.59544872	     -0.95561508	      0.87935675	     31.58699496	      0.93112797	      2.38450709	     -5.39343477	      4.48588175	      3.31912212	     -4.80045224	     -1.39258094	      6.75348686	      6.15593805
      1.17000000	     20.13157833	     21.03612709	     87.79779265	     -7.13125796	    -10.20487226	     -0.58353675	     -0.95451588	      0.87679782	     31.86632065	      0.87242081	      2.61588465	     -6.22721036	      4.18036149	      3.24208192	     -4.18144716	     -1.12486782	      5.44613028	      6.26630994
      1.18000000	     20.28872644	     21.06890106	     88.00247068	     -7.21135162	    -10.32437976	     -0.57154442	     -0.95336201	      0.87437643	     32.19642405	      0.62304951	      2.56421377	     -6.98994857	      3.76029144	      3.22491380	     -4.07331303	     -0.97533456	      5.01977155	      6.32427697
      1.19000000	     20.26866935	     21.01696399	     88.29002969	     -7.21094057	    -10.65167871	     -0.55955393	     -0.95218326	      0.87220412	     32.83202040	      0.23035148	      2.34564897	     -7.41235014	      3.28781813	      3.07635594	     -4.50633112	     -1.03113666	      4.13755358	      6.38524479
      1.20000000	     20.02774780	     20.91628232	     88.70527309	     -7.15257001	    -11.00877104	     -0.54744064	     -0.95094346	      0.87026500	     33.55867085	     -0.34468109	      2.01646347	     -7.67861089	      2.71158016	      2.81716416	     -5.42138072	     -1.30035769	      3.76506537	      6.36240788
      1.21000000	     19.04459117	     20.67810131	     89.15680668	     -7.00579407	    -11.40665470	     -0.53523956	     -0.94972891	      0.86858766	     34.32532205	     -1.03314701	      1.36627495	     -7.83724954	      2.15199086	      2.66981794	     -6.70685001	     -1.72283612	      3.05724153	      6.24581484
      1.22000000	     18.63126569	     20.46904877	     89.69238850	     -6.80571315	    -11.77693611	     -0.52283298	     -0.94847000	      0.86714957	     35.13165966	     -1.84238564	      0.88665305	     -7.85034947	      1.53117110	      2.28293269	     -8.38947400	     -2.44202630	      2.96710759	      6.10063845
      1.23000000	     17.10888768	     19.94117425	     90.15922971	     -6.50752406	    -12.19095855	     -0.51034204	     -0.94728574	      0.86599883	     35.89986536	     -2.68025131	     -0.02074353	     -7.75636030	      1.04916813	      2.11787217	    -10.25369070	     -3.33260344	      2.93542473	      5.55947632
      1.24000000	     16.08783029	     19.39495248	     90.66309510	     -6.16444213	    -12.44514429	     -0.49757449	     -0.94609735	      0.86505405	     36.50146289	     -3.56781102	     -0.63265767	     -7.65642930	      0.55441251	      1.77067568	    -12.29354644	     -4.52779346	      3.17085907	      5.07326377
      1.25000000	     15.47441694	     18.87711286	     91.08883665	     -5.73792967	    -12.72645955	     -0.48468815	     -0.94498094	      0.86442114	     37.01889729	     -4.44028430	     -1.37859586	     -7.38846770	      0.19784743	      1.48633580	    -14.33260872	     -5.99944603	      3.52653851	      4.44862150
      1.26000000	     15.20658725	     18.47334668	     91.52082955	     -5.29154410	    -12.88965475	     -0.47161568	     -0.94386080	      0.86405624	     37.29640555	     -5.31452009	     -1.93722373	     -7.02216437	     -0.15412916	      1.06659538	    -16.25906350	     -7.84229628	      3.80724629	      3.98412452
      1.27000000	     14.47628360	     17.59626206	     91.77826443	     -4.75109393	    -13.09050363	     -0.45852402	     -0.94291630	      0.86402974	     37.46658589	     -6.05327299	     -2.65736451	     -6.52836506	     -0.24048004	      0.94747236	    -18.05986034	     -9.86476465	      4.84095753	      2.71347948
      1.28000000	     14.02275390	     16.73639637	     92.06032582	     -4.20929398	    -13.21292589	     -0.44534844	     -0.94196350	      0.86430650	     37.39072600	     -6.78434334	     -3.20672058	     -5.86452449	     -0.35250061	      0.68843788	    -19.58226870	    -12.26879754	      5.65007928	      1.71123044
      1.29000000	     13.87197364	     16.10201597	     92.23959062	     -3.60450279	    -13.43086778	     -0.43226901	     -0.94113150	      0.86493599	     37.24426247	     -7.41774454	     -3.84014304	     -4.90241163	     -0.31373700	      0.44920043	    -20.83623590	    -14.96532122	      6.45563623	      0.81815709
      1.30000000	     13.76399480	     15.34924541	     92.44011858	     -3.03709859	    -13.59062632	     -0.41921635	     -0.94029397	      0.86584788	     36.88523379	     -8.00493909	     -4.28995420	     -3.79075093	     -0.30807429	      0.21146905	    -21.78084319	    -17.93161274	      7.47114997	     -0.24028156
      1.31000000	     13.79857955	     14.80962785	     92.55139263	     -2.41503531	    -13.85433680	     -0.40634563	     -0.93958900	      0.86703638	     36.50461011	     -8.47863712	     -4.77195705	     -2.39149647	     -0.18783595	     -0.08475297	    -22.47200940	    -21.09623046	      8.30961941	     -1.03082209
